<svg id="Layer_1" xmlns="http://www.w3.org/2000/svg" viewBox="0 0 800 150"><style>.st0{fill:#efb425}.st1{fill:#fff}</style><path class="st0" d="M373.355 8.374h-14.406a3.602 3.602 0 0 0-2.995 1.601l-42.925 64.301-42.926-64.3a3.602 3.602 0 0 0-2.995-1.602h-14.405a3.601 3.601 0 0 0-3.602 3.6V138.03a3.601 3.601 0 0 0 3.602 3.601h13.867a3.601 3.601 0 0 0 3.601-3.601v-90.25l39.34 57.703a3.601 3.601 0 0 0 2.976 1.573h.721a3.6 3.6 0 0 0 2.978-1.576l39.341-57.853v90.403a3.601 3.601 0 0 0 3.602 3.601h14.226a3.601 3.601 0 0 0 3.6-3.601V11.975a3.601 3.601 0 0 0-3.6-3.601zM438.713 39.347c-29.284 0-52.223 22.94-52.223 52.223v.359c0 29.08 22.782 51.86 51.864 51.86 29.385 0 52.403-22.937 52.403-52.219v-.362c0-29.081-22.86-51.86-52.044-51.86zm-30.79 51.86c0-18.477 13.082-32.411 30.431-32.411 17.369 0 30.974 14.396 30.974 32.774v.359c0 18.375-13.161 32.232-30.615 32.232-17.266 0-30.79-14.315-30.79-32.59v-.363zM549.637 41.327h-25.93V16.835a3.601 3.601 0 0 0-3.602-3.601h-13.867a3.601 3.601 0 0 0-3.601 3.601v24.492h-11.372a3.601 3.601 0 0 0-2.473 6.22l13.845 13.229v52.581c0 18.998 10.896 29.894 29.894 29.894 6.81 0 12.658-1.388 18.402-4.368a3.6 3.6 0 0 0 1.943-3.197v-11.883a3.602 3.602 0 0 0-5.165-3.245c-4.253 2.05-7.712 2.886-11.941 2.886-8.455 0-12.063-3.555-12.063-11.887V60.776h25.93a3.601 3.601 0 0 0 3.601-3.602V44.93a3.601 3.601 0 0 0-3.6-3.602zM585.688 44.929v93.1a3.601 3.601 0 0 1-3.602 3.601H568.22a3.601 3.601 0 0 1-3.601-3.601v-93.1a3.601 3.601 0 0 1 3.6-3.602h13.868a3.601 3.601 0 0 1 3.602 3.602zm-10.27-33.675c-6.543 0-11.667 5.194-11.667 11.826v.08c0 6.586 5.09 11.746 11.587 11.746 6.542 0 11.667-5.195 11.667-11.826V23c0-6.586-5.09-11.746-11.588-11.746zM646.878 39.347c-29.283 0-52.222 22.94-52.222 52.223v.359c0 29.08 22.78 51.86 51.86 51.86 29.385 0 52.402-22.937 52.402-52.219v-.362c0-29.081-22.858-51.86-52.04-51.86zm-30.794 51.86c0-18.477 13.083-32.411 30.432-32.411 17.369 0 30.974 14.396 30.974 32.774v.359c0 18.375-13.16 32.232-30.612 32.232-17.267 0-30.794-14.315-30.794-32.59v-.363zM756.716 39.347c-11.393 0-20.864 3.782-28.273 11.265V44.93a3.601 3.601 0 0 0-3.601-3.602h-13.867a3.601 3.601 0 0 0-3.602 3.602v93.1a3.601 3.601 0 0 0 3.602 3.601h13.867a3.602 3.602 0 0 0 3.601-3.601V84.726c0-15.056 9.998-25.571 24.313-25.571 14.076 0 22.15 8.927 22.15 24.491v54.383a3.601 3.601 0 0 0 3.6 3.601h13.864a3.601 3.601 0 0 0 3.602-3.601V80.224c0-24.832-15.41-40.877-39.256-40.877z"/><g><path class="st1" d="M122.338 67.078h-52.04a3.602 3.602 0 0 0-3.137 5.37l7.208 12.784a3.6 3.6 0 0 0 3.137 1.833h27.546v25.98c-8.982 6.76-21.099 10.758-32.774 10.758-27.681 0-46.28-19.612-46.28-48.801v-.359c0-26.963 19.46-48.083 44.3-48.083 17.975 0 27.921 6.498 35.991 13.52a3.602 3.602 0 0 0 5.109-.384l9.182-10.804a3.601 3.601 0 0 0-.423-5.086C105.331 11.308 91.041 6.211 70.836 6.211 33.374 6.21 4.028 36.427 4.028 75v.36c0 40.29 27.843 68.428 67.708 68.428 29.988 0 54.203-15.33 54.203-28.3v-44.81a3.601 3.601 0 0 0-3.601-3.6zM187.76 39.347c-29.284 0-52.223 22.94-52.223 52.223v.359c0 29.08 22.78 51.86 51.861 51.86 29.384 0 52.402-22.937 52.402-52.219v-.362c0-29.081-22.858-51.86-52.04-51.86zm-30.794 51.86c0-18.477 13.083-32.411 30.432-32.411 17.368 0 30.974 14.396 30.974 32.774v.359c0 18.375-13.16 32.232-30.612 32.232-17.268 0-30.794-14.315-30.794-32.59v-.363z"/></g></svg>